# xmcd CD database file
#
# Track frame offsets:
#	150
#	16232
#	32736
#	54761
#	71170
#	89802
#	105424
#	118619
#	133411
#	150678
#	168317
#	184424
#	200681
#	220958
#	237120
#	256282
#	276312
#	294076
#
# Disc length: 4346 seconds
#
# Revision: 0
# Processed by: cddbd v1.4PL0 Copyright (c) Steve Scherf et al.
# Submitted via: CDex 1.40Release
#
DISCID=0b10f812
DTITLE=Shania Twain - Come On Over
DYEAR=1900
DGENRE=Country
TTITLE0=You're Still The One
TTITLE1=When
TTITLE2=From This Moment On
TTITLE3=Black Eyes, Blue Tears
TTITLE4=I Won't Leave You Lonely
TTITLE5=I'm Holding To Love
TTITLE6=Come On Over
TTITLE7=You've Got A Way
TTITLE8=Whatever You Do, Don't
TTITLE9=Man! I Feel Like A Woman
TTITLE10=Love Gets Me Every Time
TTITLE11=Don't Be Stupid
TTITLE12=That Don't Impress Me Much
TTITLE13=Honey, I'm Home
TTITLE14=If You Wanne Touch Her, Ask!
TTITLE15=Rock This Country
TTITLE16=God Bless The Child
TTITLE17=I'm Outa Here
EXTD=ID3G: 2
EXTT0=
EXTT1=
EXTT2=
EXTT3=
EXTT4=
EXTT5=
EXTT6=
EXTT7=
EXTT8=
EXTT9=
EXTT10=
EXTT11=
EXTT12=
EXTT13=
EXTT14=
EXTT15=
EXTT16=
EXTT17=
PLAYORDER=
